<svg version="1.0" xmlns="http://www.w3.org/2000/svg" width="1706.667" height="1280" viewBox="0 0 1280 960"><g fill="#fff"><path d="M637.7 35.6c-.1.1-8.1.5-17.7.9s-18.8.8-20.5 1c-6.8.6-15.4 1.6-21 2.5-22.2 3.7-31.1 5.2-31.7 5.6-.6.4-9.3 2.3-13.3 2.9-2.1.3-29.8 8.2-32.5 9.2-.8.4-1.7.7-2 .8-.3.1-1.4.5-2.5.9s-5.4 2-9.5 3.6c-4.1 1.5-8.6 3.1-10 3.5-2.4.7-5.1 1.9-20 8.7-9.1 4.1-26.2 12.9-34 17.3-3.6 2.1-8.5 4.9-11 6.3-7.4 4.2-15.5 9.5-15.8 10.4-.2.4-.8.8-1.4.8-.6 0-2.7 1.3-4.8 3-2.1 1.6-4.3 3-4.9 3-.6 0-1.1.3-1.1.7-.1.5-2.4 2.4-5.1 4.3-28 19.5-65.4 55.2-86.9 83-1.9 2.5-3.7 4.7-4 5-1.6 1.4-23 32.2-25.9 37.3-1 1.8-5.1 8.7-9 15.5-28.5 49.2-49.3 112.7-55 168.2-.6 5.8-1.3 12.3-1.6 14.5-1.1 9.5-1.5 54.2-.5 67 2.3 31.1 9.5 71.8 16.6 93.6.8 2.5 1.6 5.4 1.8 6.5 1.8 8.3 16 45 23.5 60.6 24.2 49.9 52.2 89.1 90.8 126.8 17 16.7 19.2 18.7 32.8 29.6 67.6 54.3 145 86.3 232.1 96.1 19.6 2.2 69.2 2.4 88.9.5 88.6-8.9 171.8-43.5 240.5-100.1 17.2-14.2 40.7-37.5 58.1-57.8 1.5-1.6 6.9-8.6 12.1-15.4 51.2-67 81.7-145.1 89.9-229.9 1.4-15 1.9-53.2.8-69-2-30.6-7.1-59.9-16.4-94.5-.8-3.3-1.7-6.5-1.8-7.2-.2-.7-.6-1.6-1-1.9-.4-.4-.7-1.4-.7-2.2 0-1.5-7.9-23.9-10.5-29.7-.7-1.7-2.3-5.4-3.5-8.4-4.6-11.8-16.7-36.3-22.8-46.5-2.3-3.7-4.2-6.9-4.2-7.1 0-.8-16.6-26.8-19.2-30-.4-.6-3.6-4.8-7-9.4-11.5-15.3-14.2-18.8-23.4-29.3-11.3-12.8-34.9-36.2-44.4-43.8-19-15.4-23.1-18.7-25-20-1.2-.8-2.9-2.1-3.7-2.9-.8-.8-4.2-3.2-7.6-5.4-3.4-2.2-6.4-4.2-6.7-4.6-.3-.3-2.1-1.5-4-2.5-1.9-1.1-4.8-3-6.3-4.3-1.6-1.3-3.3-2.3-3.8-2.3s-2.8-1.2-5-2.6c-2.3-1.4-6.2-3.7-8.7-5.1-2.6-1.4-4.9-3-5.2-3.4-.3-.5-1.5-1-2.5-1.2-1.1-.1-3.1-1-4.5-1.9-4.1-2.7-37.2-18.4-42-19.9-1.4-.4-5-1.7-8-2.9-8.2-3.2-20.1-7.1-23.5-7.7-1.6-.3-3.2-.8-3.5-1.2-.3-.5-1.6-1.1-3-1.4-1.4-.3-7-1.7-12.4-3.1-10.6-2.8-12.7-3.3-22.1-5.1-1.1-.2-2.1-.4-2.2-.5-.5-.4-9.4-2.1-12.8-2.5-.5-.1-2.6-.4-4.5-.8-7.9-1.5-27.4-3.7-41-4.7-12.5-.9-32.8-1.7-33.3-1.4zM682 81.5c35.6 3.9 63.2 10.2 95.3 21.9 106.9 38.7 195 123.8 236.6 228.4 7.5 18.8 17.2 50.1 19.5 62.8.3 1.3.7 3.2 1 4.2.3.9.7 3.5 1.1 5.7.3 2.2.7 4.7 1 5.5.7 2.3 3.3 21.3 4.6 33 1.4 13.4 2 53.3.9 67-1.7 20.4-2.4 25.7-6.6 48-3.2 16.9-10.6 45.3-13.4 51.5-.5 1.1-1.8 4.7-2.9 8-7.6 22.8-24.3 56.5-40.4 81.7-3.4 5.4-6.9 10.6-7.7 11.5-.8 1-3.3 4.3-5.5 7.3-6.5 9-14.3 18.9-21.3 26.9-13 15-42.9 43.5-53.8 51.4-1.8 1.2-6.7 4.9-11 8.2-14.8 11.2-39.9 26.9-51.9 32.6-3.8 1.8-7.2 3.6-7.5 3.9-2.3 2.8-52.8 23-57.3 23-.9 0-1.7.5-1.7 1.2 0 .6-.2.9-.6.6-.3-.3-2.6.1-5.2.9-5.6 1.7-17.9 5.2-20.7 5.8-1.1.3-4 .9-6.5 1.5-4.9 1.1-20.7 3.9-25.5 4.6-1.6.2-5.2.8-8 1.3-8.7 1.7-29.6 3.1-49 3.4-22.1.3-46.1-1.3-65.5-4.3-25.4-4-53.4-10.7-69-16.5-23.7-8.7-51.1-20.4-53-22.6-.3-.3-2.1-1.1-4-1.9-3.2-1.2-9.3-4.5-17.3-9.4-1.8-1.1-4.1-2.4-5.2-3-1.1-.7-5.3-3.4-9.4-6.1-4-2.8-8.4-5.7-9.7-6.5-8.6-5.6-32.2-23.9-39.9-31-3.8-3.5-16.5-15.3-18.9-17.6-2.2-2.1-19.1-20.7-21.1-23.1-1.1-1.4-4.2-5.4-7-8.8-22-27.4-38.7-54.6-53.3-86.5-17.6-38.6-26.8-73.3-33.7-127-1.2-9.9-1.3-58.8 0-72.5 7.6-83 38.7-157.8 92.9-223.5 9-11 36.5-38.5 48.1-48.2 67.7-56.6 144.9-88 233.5-94.8 15.2-1.2 52.1-.4 69 1.5z"/><path d="M570.7 173.6c-.1.1-4.3.4-9.4.8-5.1.3-9.9.9-10.8 1.2-3.8 1.5-4 3.9-4.3 44.4-.2 26.5-.6 40.2-1.4 41.7-2.2 4.3-4.2 4.5-56 4.7-27.1.2-50 .6-51 1-3.1 1.4-3.8 5.9-4.1 24.1-.4 22.1.5 38.9 2.2 40.9 1 1.2 5.6 1.5 25.9 1.8 23.3.3 25 .4 29.7 2.6 6.4 3 9.1 5.5 12.3 11.7l2.5 5 .1 119.4c.1 65.7-.2 123.7-.6 128.9-.6 9.3-.7 9.5-4.5 12.9-6.3 5.8-7.2 6-35.1 6.7-11.4.3-17.8.9-18.8 1.7-2.2 1.8-6.3 18.8-8.8 36.9-.3 1.9-1.2 7.8-2.1 13-2.2 13.6-2 20.6.4 22 1.3.6 19.2 1 51.3 1 42.4 0 55.7.5 57.3 2.2.2.1.5 19.6.7 43.3.3 31.7.7 43.6 1.6 45.3l1.3 2.2h28.3c21.5 0 28.6-.3 29.3-1.2 2-2.5 2.4-10.7 2.4-46.2-.1-19.9.2-37.5.5-39.3.4-2.3 1.4-3.4 3.3-4.1 3.5-1.2 30.7-.2 32.5 1.2 1.2.9 1.5 8.1 1.9 42.6.2 28.3.7 42.4 1.5 44.2l1.2 2.8h28.4c25.1 0 28.5-.2 29.7-1.7 1.1-1.3 1.5-10.3 1.9-45.4.3-24 .8-44 1.2-44.4.6-.6 11.3-2.1 27.8-3.9 29.7-3.1 57.4-10.6 77.4-20.9 43.5-22.3 63.9-61.3 62.3-119.2-.4-17.3-2.1-28-5.6-36-.5-1.1-1.9-4.6-3.1-7.7-4.2-10.9-15.4-25.2-25.5-32.6-2.7-2-5.3-4.1-5.7-4.7-.4-.5-.8-.6-.8-.1s-.9.1-1.9-.8c-2.2-2-13.1-7.8-13.1-7 0 .3-1.5-.3-3.2-1.4-1.8-1.2-3.7-2-4.1-2-1.2 0-5.7-3.5-5.7-4.5 0-.5 4-4.9 9-9.7 18.4-18.1 26.1-35.8 27.6-63.3 1.4-24.9-5.6-50.7-18.4-67.9-5.1-6.9-15.2-16.4-22.7-21.5-6.1-4.1-19.4-11.3-21.7-11.7-.7-.1-3.1-1-5.3-2-11.1-4.9-38.3-11.3-50.7-11.9-2.1-.1-3.8-.5-3.8-1 0-.4-1.3-.7-2.9-.7-4.8 0-7.7-1.6-9.4-5.3-1.5-3.1-1.7-8.3-1.8-41.4 0-27.7-.4-38.7-1.3-41.3-1.3-3.5-1.4-3.5-8.7-4.3-4.1-.5-16.5-.6-27.7-.4-22.6.4-22.7.4-24.2 7.3-.5 2.1-.9 20-1 39.7 0 22.5-.4 36.5-1 37.7-.6 1.1-2 2.5-3.3 3.1-2.9 1.6-25.3 2-28.5.6-4.9-2.3-5.1-3.6-5.2-44.1 0-38.3-.4-41.8-3.9-43.1-.9-.4-6.3-.8-12.1-1.1-14.2-.7-22.1-.9-22.3-.8zM668 339.1c14.2 1.3 31.8 5.8 40.8 10.3 19 9.5 28.1 26.6 25.3 47-1.2 8.3-2.6 11.7-7.7 18.4-3.6 4.7-11.2 11.2-13.1 11.2-.7 0-1.3.3-1.3.8 0 1.4-15.4 7.7-21.2 8.7-1.8.3-5.1 1.1-7.3 1.6-5.7 1.6-6.9 1.8-14.9 2.5-3.9.3-7.5.9-8 1.1-.4.3-10.4.7-22 .9l-21.2.4-3.2-2.8-3.2-2.7-.1-44.5v-48.3c.1-2.9.6-4 2.4-4.7 3.1-1.2 40.9-1.2 54.7.1zm8.5 167.9c50.8 4.4 77.9 19.8 83.5 47.5 1.4 6.8.7 16.6-1.7 24-2 6.3-3.4 8.6-10 16.1-2.2 2.5-12.2 9.3-17.8 12.1-6.3 3.2-22.9 8.5-30.5 9.7-1.9.3-4.6.8-6 1.1-5.6 1.1-7.8 1.4-15 1.9-4.1.3-11.1.9-15.5 1.3-13.1 1.1-45.9.7-48.3-.6-1.2-.6-2.7-2.1-3.3-3.3-1.3-2.4-1.5-107.7-.2-108.9.5-.4 1.9-.9 3.3-1.2 5.1-.9 49.9-.6 61.5.3z"/></g></svg>
